HIERARCHY
ROOT Hips
{
	OFFSET 0.000000 0.000000 0.000000
	CHANNELS 6 Xposition Yposition Zposition Xrotation Yrotation Zrotation
	JOINT LeftUpLeg_virtual
	{
		OFFSET 0.000000 0.000000 0.000000
		CHANNELS 3 Xrotation Yrotation Zrotation
		JOINT LeftUpLeg
		{
			OFFSET 11.394100 -6.187798 -0.413800
			CHANNELS 3 Xrotation Yrotation Zrotation
			JOINT LeftLeg
			{
				OFFSET 0.430247 -32.302673 3.732800
				CHANNELS 3 Xrotation Yrotation Zrotation
				JOINT LeftFoot
				{
					OFFSET -0.430247 -48.264931 -6.423300
					CHANNELS 3 Xrotation Yrotation Zrotation
					JOINT LeftToeBase
					{
						OFFSET 4.230900 -16.068199 23.438400
						CHANNELS 3 Xrotation Yrotation Zrotation
						JOINT LeftToe_End
						{
							OFFSET 4.510700 0.695400 19.974600
							CHANNELS 3 Xrotation Yrotation Zrotation
							End Site
							{
								OFFSET 0 0 0
							}
						}
					}
				}
			}
		}
	}
	JOINT RightUpLeg_virtual
	{
		OFFSET 0.000000 0.000000 0.000000
		CHANNELS 3 Xrotation Yrotation Zrotation
		JOINT RightUpLeg
		{
			OFFSET -11.333700 -6.187798 -0.413800
			CHANNELS 3 Xrotation Yrotation Zrotation
			JOINT RightLeg
			{
				OFFSET -0.430392 -32.302628 3.733000
				CHANNELS 3 Xrotation Yrotation Zrotation
				JOINT RightFoot
				{
					OFFSET 0.430392 -48.264973 -6.423500
					CHANNELS 3 Xrotation Yrotation Zrotation
					JOINT RightToeBase
					{
						OFFSET -4.230900 -16.068199 23.438400
						CHANNELS 3 Xrotation Yrotation Zrotation
						JOINT RightToe_End
						{
							OFFSET -4.510700 0.695400 19.974600
							CHANNELS 3 Xrotation Yrotation Zrotation
							End Site
							{
								OFFSET 0 0 0
							}
						}
					}
				}
			}
		}
	}
	JOINT Spine_virtual
	{
		OFFSET 0.000000 0.000000 0.000000
		CHANNELS 3 Xrotation Yrotation Zrotation
		JOINT Spine
		{
			OFFSET -0.002400 12.777504 0.315300
			CHANNELS 3 Xrotation Yrotation Zrotation
			JOINT Spine1
			{
				OFFSET -0.002067 5.816869 0.032633
				CHANNELS 3 Xrotation Yrotation Zrotation
				JOINT Spine1_split
				{
					OFFSET -0.002067 5.816869 0.032633
					CHANNELS 3 Xrotation Yrotation Zrotation
					JOINT Spine2
					{
						OFFSET -0.002067 5.816869 0.032633
						CHANNELS 3 Xrotation Yrotation Zrotation
						JOINT Neck_virtual
						{
							OFFSET 0.000000 0.000000 0.000000
							CHANNELS 3 Xrotation Yrotation Zrotation
							JOINT Neck
							{
								OFFSET -0.003700 21.199493 -0.826900
								CHANNELS 3 Xrotation Yrotation Zrotation
								JOINT Head
								{
									OFFSET 0.000000 20.442200 4.834800
									CHANNELS 3 Xrotation Yrotation Zrotation
									JOINT HeadTop_End
									{
										OFFSET 0.000000 34.668396 4.968400
										CHANNELS 3 Xrotation Yrotation Zrotation
										End Site
										{
											OFFSET 0 0 0
										}
									}
								}
							}
						}
						JOINT LeftShoulder_virtual
						{
							OFFSET 0.000000 0.000000 0.000000
							CHANNELS 3 Xrotation Yrotation Zrotation
							JOINT LeftShoulder
							{
								OFFSET 3.288150 8.794197 -1.372250
								CHANNELS 3 Xrotation Yrotation Zrotation
								JOINT LeftShoulder_split
								{
									OFFSET 3.288150 8.794197 -1.372250
									CHANNELS 3 Xrotation Yrotation Zrotation
									JOINT LeftArm
									{
										OFFSET 11.953299 -2.279007 -0.146200
										CHANNELS 3 Xrotation Yrotation Zrotation
										JOINT LeftForeArm
										{
											OFFSET 18.448900 0.000000 0.000000
											CHANNELS 3 Xrotation Yrotation Zrotation
											JOINT LeftHand
											{
												OFFSET 29.527798 0.000000 0.000000
												CHANNELS 3 Xrotation Yrotation Zrotation
												End Site
												{
													OFFSET 0 0 0
												}
											}
										}
									}
								}
							}
						}
						JOINT RightShoulder_virtual
						{
							OFFSET 0.000000 0.000000 0.000000
							CHANNELS 3 Xrotation Yrotation Zrotation
							JOINT RightShoulder
							{
								OFFSET -3.249400 8.794197 -1.372250
								CHANNELS 3 Xrotation Yrotation Zrotation
								JOINT RightShoulder_split
								{
									OFFSET -3.249400 8.794197 -1.372250
									CHANNELS 3 Xrotation Yrotation Zrotation
									JOINT RightArm
									{
										OFFSET -11.953299 -2.279007 -0.146200
										CHANNELS 3 Xrotation Yrotation Zrotation
										JOINT RightForeArm
										{
											OFFSET -18.448900 0.000000 0.000000
											CHANNELS 3 Xrotation Yrotation Zrotation
											JOINT RightHand
											{
												OFFSET -29.527802 0.000000 0.000000
												CHANNELS 3 Xrotation Yrotation Zrotation
												End Site
												{
													OFFSET 0 0 0
												}
											}
										}
									}
								}
							}
						}
					}
				}
			}
		}
	}
}
MOTION
Frames: 9
Frame Time: 0.03333333
2.792305 195.208191 -26.355150 0.000000 0.000000 0.000000 7.812187 -6.261282 0.448244 -97.585665 13.450967 22.320614 91.040206 8.740738 10.426916 12.250631 4.859146 -26.087368 18.036322 -2.810751 15.604718 0.000000 0.000000 0.000000 7.812187 -6.261282 0.448244 -119.894176 15.830557 -6.178295 109.661324 -15.898327 -0.845890 24.687983 -3.787436 29.421211 -0.868730 3.731872 7.626961 0.000000 0.000000 0.000000 7.812187 -6.261282 0.448244 7.000140 -1.170887 -0.777240 13.996693 -1.811986 -1.211085 0.000000 0.000000 0.000000 0.000000 0.000000 0.000000 13.996686 -1.811980 -1.211086 -24.372381 5.014637 -0.945693 -1.224032 -6.048548 6.641317 0.000000 0.000000 0.000000 13.996686 -1.811980 -1.211086 -1.844333 -14.027006 26.494082 0.000000 0.000000 0.000000 -63.430396 -7.026760 -16.234093 23.387140 -71.240362 49.981829 0.000000 0.000000 0.000000 13.996686 -1.811980 -1.211086 5.983850 16.525183 -13.888782 0.000000 0.000000 0.000000 -72.297143 38.279693 21.699742 -16.158336 59.491385 -20.424351 0.000000 0.000000 0.000000 
3.275294 195.227631 -28.519274 0.000000 0.000000 0.000000 5.212581 -7.247416 0.321835 -105.316729 7.902759 24.099298 95.965517 6.111133 6.082514 10.504626 5.534645 -27.845098 17.823170 -1.543950 16.681600 0.000000 0.000000 0.000000 5.212581 -7.247416 0.321835 -122.475004 11.966369 -7.666705 105.672500 -12.296372 -2.669506 23.068730 -3.781981 32.000252 2.511546 3.761237 3.542691 0.000000 0.000000 0.000000 5.212581 -7.247416 0.321835 8.445210 -0.848828 -0.671893 16.887414 -1.177192 -1.114027 0.000000 0.000000 0.000000 0.000000 0.000000 0.000000 16.887421 -1.177190 -1.114029 -26.807217 6.493742 -1.451445 4.682582 -9.389103 9.652372 0.000000 0.000000 0.000000 16.887421 -1.177190 -1.114029 -0.612877 -14.977172 27.292792 0.000000 0.000000 0.000000 -67.334764 -8.203781 -15.014252 16.808266 -68.480283 48.053024 0.000000 0.000000 0.000000 16.887421 -1.177190 -1.114029 6.218780 17.756040 -13.894191 0.000000 0.000000 0.000000 -82.947962 43.284500 24.548730 -18.192465 53.742483 -21.031659 0.000000 0.000000 0.000000 
3.646260 194.984192 -30.499437 0.000000 0.000000 0.000000 2.543055 -7.614607 0.396375 -109.135078 5.911987 24.055513 93.731403 2.652742 3.311883 10.239768 5.703373 -27.798382 15.821421 -0.277174 14.834003 0.000000 0.000000 0.000000 2.543055 -7.614607 0.396375 -119.411378 6.467792 -10.633513 96.912632 -5.764113 -3.267785 17.513823 -4.639698 30.758497 6.672926 3.651659 0.751850 0.000000 0.000000 0.000000 2.543055 -7.614607 0.396375 9.691707 -0.447928 -0.603306 19.380867 -0.593886 -1.137936 0.000000 0.000000 0.000000 0.000000 0.000000 0.000000 19.380863 -0.593884 -1.137936 -27.906167 8.033921 -1.876915 10.220150 -12.179003 11.188150 0.000000 0.000000 0.000000 19.380863 -0.593884 -1.137936 1.416562 -16.917224 27.896840 0.000000 0.000000 0.000000 -71.463907 -13.211101 -13.429067 5.023492 -63.827250 43.312436 0.000000 0.000000 0.000000 19.380863 -0.593884 -1.137936 7.401568 20.145757 -15.002647 0.000000 0.000000 0.000000 -85.334813 46.412225 18.300088 -22.943304 49.160256 -18.542907 0.000000 0.000000 0.000000 
3.789435 194.444061 -32.194740 0.000000 0.000000 0.000000 0.337354 -7.713442 0.602199 -106.800793 7.744244 22.357229 84.555870 -1.996464 2.129814 10.146722 5.642828 -24.548600 13.718333 0.384940 10.233491 0.000000 0.000000 0.000000 0.337354 -7.713442 0.602199 -111.155967 -0.314343 -13.320479 83.511111 1.829800 -2.505269 10.180246 -5.500294 24.318025 9.719095 3.798737 0.434068 0.000000 0.000000 0.000000 0.337354 -7.713442 0.602199 10.659075 -0.065696 -0.503437 21.316522 -0.290756 -1.141271 0.000000 0.000000 0.000000 0.000000 0.000000 0.000000 21.316544 -0.290757 -1.141269 -27.499868 9.287822 -2.027715 13.878549 -13.401407 11.047121 0.000000 0.000000 0.000000 21.316544 -0.290757 -1.141269 3.604421 -18.354380 29.488006 0.000000 0.000000 0.000000 -73.580760 -16.357432 -9.940297 -5.383963 -59.850093 38.716883 0.000000 0.000000 0.000000 21.316544 -0.290757 -1.141269 8.955256 22.064434 -17.026256 0.000000 0.000000 0.000000 -80.139094 47.684249 5.475434 -28.400618 45.367267 -14.783343 0.000000 0.000000 0.000000 
3.612471 193.238678 -33.374886 0.000000 0.000000 0.000000 -1.323007 -7.796839 0.801330 -100.537755 11.391032 20.090764 72.207551 -7.062220 1.880447 12.362424 4.872802 -17.149340 10.661672 -0.964717 4.048701 0.000000 0.000000 0.000000 -1.323007 -7.796839 0.801330 -100.912548 -7.415668 -14.663530 67.909067 7.209184 -1.016865 5.978631 -4.567621 16.141615 8.746696 5.421396 2.287673 0.000000 0.000000 0.000000 -1.323007 -7.796839 0.801330 11.262908 0.187109 -0.370722 22.525122 -0.233017 -1.044680 0.000000 0.000000 0.000000 0.000000 0.000000 0.000000 22.525096 -0.233014 -1.044682 -25.698155 10.045507 -1.883914 15.556652 -13.234735 9.919604 0.000000 0.000000 0.000000 22.525096 -0.233014 -1.044682 4.957425 -18.168877 31.734558 0.000000 0.000000 0.000000 -73.124388 -15.655272 -5.604229 -14.257547 -56.993865 32.782565 0.000000 0.000000 0.000000 22.525096 -0.233014 -1.044682 10.130652 22.158375 -19.697099 0.000000 0.000000 0.000000 -74.150043 46.992094 -5.532350 -32.523069 41.786616 -11.731350 0.000000 0.000000 0.000000 
3.126268 190.995758 -33.838608 0.000000 0.000000 0.000000 -2.851159 -7.750236 1.008027 -92.491772 15.851868 18.178799 60.553425 -12.085719 1.421784 12.424002 5.386426 -7.764151 4.046279 -3.570647 -0.781757 0.000000 0.000000 0.000000 -2.851159 -7.750236 1.008027 -91.318618 -14.262705 -14.491525 52.056106 8.373191 0.114567 10.893984 -1.773613 10.546563 -17.379375 7.288175 9.901535 0.000000 0.000000 0.000000 -2.851159 -7.750236 1.008027 11.509115 0.182024 -0.287235 23.017539 -0.255261 -0.881366 0.000000 0.000000 0.000000 0.000000 0.000000 0.000000 23.017545 -0.255259 -0.881366 -22.914595 10.339474 -1.585265 16.071085 -12.467580 8.595114 0.000000 0.000000 0.000000 23.017545 -0.255259 -0.881366 5.058428 -16.552477 33.912282 0.000000 0.000000 0.000000 -71.568758 -13.168069 -2.777430 -21.755546 -53.568757 25.644500 0.000000 0.000000 0.000000 23.017545 -0.255259 -0.881366 11.038696 20.184409 -23.873268 0.000000 0.000000 0.000000 -71.352145 44.246638 -10.401437 -35.120249 38.850652 -10.056491 0.000000 0.000000 0.000000 
2.382430 187.770172 -33.419853 0.000000 0.000000 0.000000 -4.836422 -7.038988 1.544423 -77.975810 22.144604 14.051770 42.536536 -16.511926 0.887419 13.245893 5.394578 -0.848532 -42.966712 -3.301436 -3.696536 0.000000 0.000000 0.000000 -4.836422 -7.038988 1.544423 -89.758289 -17.744201 -16.131580 49.200346 8.081309 0.114927 11.752129 0.168990 9.088180 -36.315064 5.744780 14.518610 0.000000 0.000000 0.000000 -4.836422 -7.038988 1.544423 11.523815 -0.363882 -0.476848 23.047903 -0.227261 -0.703352 0.000000 0.000000 0.000000 0.000000 0.000000 0.000000 23.047894 -0.227261 -0.703353 -19.722777 10.349836 -1.312150 16.120121 -11.699942 7.306048 0.000000 0.000000 0.000000 23.047894 -0.227261 -0.703353 4.501752 -14.521500 35.751006 0.000000 0.000000 0.000000 -69.727776 -11.772273 -1.413572 -27.740322 -47.885835 18.457785 0.000000 0.000000 0.000000 23.047894 -0.227261 -0.703353 12.242675 17.018045 -30.451036 0.000000 0.000000 0.000000 -70.717948 38.069108 -10.863245 -37.434143 37.108998 -9.049498 0.000000 0.000000 0.000000 
1.624318 183.445526 -31.424997 0.000000 0.000000 0.000000 -7.595079 -6.336480 1.788217 -82.384089 22.419650 16.310389 53.112330 -16.735364 1.362171 2.345593 3.929820 3.995426 -35.717204 -1.403025 -5.394615 0.000000 0.000000 0.000000 -7.595079 -6.336480 1.788217 -96.769048 -17.273166 -19.939125 60.450835 7.937390 -0.885832 7.445809 0.556662 9.686693 -33.981967 7.959737 12.955586 0.000000 0.000000 0.000000 -7.595079 -6.336480 1.788217 11.478167 -0.425770 -0.438267 22.957546 -0.108068 -0.511700 0.000000 0.000000 0.000000 0.000000 0.000000 0.000000 22.957564 -0.108066 -0.511700 -16.634642 10.236670 -1.178193 15.890618 -11.006133 5.852622 0.000000 0.000000 0.000000 22.957564 -0.108066 -0.511700 4.226168 -12.996085 37.302221 0.000000 0.000000 0.000000 -67.686376 -12.237931 0.075555 -31.938590 -39.759569 12.159170 0.000000 0.000000 0.000000 22.957564 -0.108066 -0.511700 13.894753 13.958227 -38.568678 0.000000 0.000000 0.000000 -69.848001 28.754386 -10.293767 -40.107130 35.870378 -7.676487 0.000000 0.000000 0.000000 
0.996155 179.218109 -28.497087 0.000000 0.000000 0.000000 -11.034062 -5.524873 1.853114 -88.582390 20.614206 19.187659 65.635229 -14.730853 1.748307 -0.491423 1.750932 4.703021 -35.799088 -1.844369 -5.343929 0.000000 0.000000 0.000000 -11.034062 -5.524873 1.853114 -103.814873 -14.969154 -23.028840 72.548603 8.262111 -2.018652 5.934200 -0.131039 9.345254 -34.358843 8.847626 12.490881 0.000000 0.000000 0.000000 -11.034062 -5.524873 1.853114 11.470557 -0.308336 -0.304589 22.942008 0.092158 -0.293755 0.000000 0.000000 0.000000 0.000000 0.000000 0.000000 22.942028 0.092158 -0.293755 -13.994049 10.063088 -1.200260 15.310265 -10.178170 4.114582 0.000000 0.000000 0.000000 22.942028 0.092158 -0.293755 4.671621 -12.257695 38.625054 0.000000 0.000000 0.000000 -65.487929 -13.779723 2.376957 -34.045525 -30.547611 7.247287 0.000000 0.000000 0.000000 22.942028 0.092158 -0.293755 15.704984 11.918126 -45.789554 0.000000 0.000000 0.000000 -68.272638 19.565941 -10.099376 -42.230807 34.016524 -5.728573 0.000000 0.000000 0.000000 
